<svg xmlns="http://www.w3.org/2000/svg" xmlns:xlink="http://www.w3.org/1999/xlink" viewBox="0 0 831 518.53"><defs><style>.cls-1{fill:url(#未命名的渐变_32);}.cls-2{fill:url(#未命名的渐变_32-2);}.cls-3{fill:#e6e6e6;}</style><linearGradient id="未命名的渐变_32" x1="408.3" y1="345.93" x2="414.61" y2="188.26" gradientUnits="userSpaceOnUse"><stop offset="0" stop-color="#a3883f" stop-opacity="0"/><stop offset="1" stop-color="#a3883f"/></linearGradient><linearGradient id="未命名的渐变_32-2" x1="604.03" y1="369.93" x2="608.76" y2="264.3" xlink:href="#未命名的渐变_32"/></defs><g id="图层_2" data-name="图层 2"><g id="图层_5" data-name="图层 5"><g id="图层_4" data-name="图层 4"><path d="M76.72,487.88h-12l-3.11,17.75H58L65.38,463,78,463q6.39,0,9.84,3.32t2.9,9a12.83,12.83,0,0,1-3.2,7.39,15.88,15.88,0,0,1-7.37,4.51l7.26,18,0,.41h-3.8ZM65.21,484.8l10.54,0a11.71,11.71,0,0,0,7.72-2.65,10.11,10.11,0,0,0,3.71-6.9,7.8,7.8,0,0,0-1.82-6.59c-1.54-1.66-3.82-2.53-6.82-2.61l-10.08,0Z"/><path d="M101.73,479.3q4.56-6.07,10.78-5.95,4.56.12,6.65,3.19c1.38,2,1.87,4.88,1.46,8.47l-3.45,20.62h-3.46L117.17,485a18.33,18.33,0,0,0,0-3.22c-.33-3.47-2.22-5.26-5.68-5.35a9.41,9.41,0,0,0-5.74,1.83,15.86,15.86,0,0,0-4.69,5.69l-3.75,21.71H93.9l7.83-45h3.45Z"/><path d="M129.43,505.63h-3.52l5.54-31.69h3.48Zm3-40.86c.09-1.27.93-2.07,2.51-2.41a2.92,2.92,0,0,1,1.63.72,3,3,0,0,1,.63,1.69,3.26,3.26,0,0,1-.85,1.62,3.56,3.56,0,0,1-1.67.75Q132.3,466.78,132.42,464.77Z"/><path d="M147.11,473.94l-1.06,5.42a15.34,15.34,0,0,1,4.88-4.5,11.35,11.35,0,0,1,5.93-1.51q4.57.12,6.65,3.19c1.39,2,1.88,4.88,1.47,8.47l-3.46,20.62h-3.45L161.52,485a17.44,17.44,0,0,0,.06-3.22c-.33-3.47-2.23-5.26-5.68-5.35a9.39,9.39,0,0,0-5.74,1.83,15.86,15.86,0,0,0-4.69,5.69l-3.75,21.71h-3.46l5.51-31.69Z"/><path d="M182.48,506.22a11.13,11.13,0,0,1-6.59-2.12,11.91,11.91,0,0,1-4.08-5.63,17.47,17.47,0,0,1-.93-7.69l.09-1a21.08,21.08,0,0,1,2.61-8.37,16,16,0,0,1,5.57-6.06,12.76,12.76,0,0,1,7.2-2,9.84,9.84,0,0,1,6,1.93,10.56,10.56,0,0,1,3.56,5.22,17.46,17.46,0,0,1,.71,7.38l-.24,2.14H174.43l-.09.7a13.89,13.89,0,0,0,.47,6.11,9.53,9.53,0,0,0,3,4.63,7.81,7.81,0,0,0,5,1.77,10.15,10.15,0,0,0,5.07-1.08A16.22,16.22,0,0,0,192,499l2.05,1.67a14.22,14.22,0,0,1-5.09,4.18A14,14,0,0,1,182.48,506.22Zm3.7-29.88a9.16,9.16,0,0,0-6.83,2.69,17.53,17.53,0,0,0-4.54,8l18.4,0,.09-.44a10.21,10.21,0,0,0-1.47-7.16A6.68,6.68,0,0,0,186.18,476.34Z"/><path d="M218.43,502.59h20.45l-.52,3H214.3L221.71,463h3.61Z"/><path d="M263.59,505.63a12.69,12.69,0,0,1-.08-2.22l.26-2.2a16.49,16.49,0,0,1-5,3.72,13.42,13.42,0,0,1-6.11,1.29,9.07,9.07,0,0,1-6.52-2.53,7.58,7.58,0,0,1-2.24-6.23A9.28,9.28,0,0,1,246,492a12.31,12.31,0,0,1,5.47-3.58,23.27,23.27,0,0,1,7.93-1.27l6.48,0,.53-3.64a6.44,6.44,0,0,0-1.41-5.21,6.94,6.94,0,0,0-5.19-2.08,10,10,0,0,0-6,1.71,7.53,7.53,0,0,0-3.2,4.68h-3.43a9.73,9.73,0,0,1,4.28-6.79,14.42,14.42,0,0,1,8.73-2.56c3.26.08,5.77,1.06,7.54,3a8.82,8.82,0,0,1,2.15,7.38l-2.63,15.94-.24,2.55a11.75,11.75,0,0,0,.24,3.13l-.06.35Zm-10.37-2.46a11.45,11.45,0,0,0,6.17-1.54,13.64,13.64,0,0,0,4.88-4.71l1.2-7-5.6,0a17.58,17.58,0,0,0-8.7,1.9,6.76,6.76,0,0,0-3.72,5.41,5.09,5.09,0,0,0,1.36,4.26A6.06,6.06,0,0,0,253.22,503.17Z"/><path d="M302.28,489.93q-1,7.56-4.82,12a12.07,12.07,0,0,1-14.85,2.93A9.21,9.21,0,0,1,279,501.3l-1,4.33h-3.29l7.83-45H286l-3.31,17.91A12,12,0,0,1,293,473.35a8.56,8.56,0,0,1,7,3.37c1.64,2.17,2.49,5.16,2.55,9a26.53,26.53,0,0,1-.18,3.61Zm-3.43-.67.21-2.78c.06-3.17-.5-5.63-1.67-7.36a6.15,6.15,0,0,0-5.24-2.72q-6.42-.12-10,6.49l-2.41,14.32a8.16,8.16,0,0,0,2.92,4.37,8.67,8.67,0,0,0,5,1.62,9,9,0,0,0,7.31-3.37Q297.9,496.37,298.85,489.26Z"/><path d="M331,490.61l-2.64,15h-8.58L327.2,463l14.94,0q6.92,0,10.87,3.84a11.88,11.88,0,0,1,3.46,10,13.47,13.47,0,0,1-5.23,10c-3.18,2.5-7.22,3.75-12.15,3.75Zm1.2-7.12,7.15.05a9,9,0,0,0,5.74-1.78,7.23,7.23,0,0,0,2.73-4.84,6.17,6.17,0,0,0-1-4.86,5.3,5.3,0,0,0-4.2-1.93l-8.09,0Z"/><path d="M365.81,505.63h-8.32L363,473.94h8.32ZM364,465.88a4.11,4.11,0,0,1,1.29-3.25,5,5,0,0,1,6.5-.15,4.12,4.12,0,0,1,1.44,3.11,4.24,4.24,0,0,1-1.22,3.16,4.56,4.56,0,0,1-3.32,1.41,4.63,4.63,0,0,1-3.24-1.12A4.07,4.07,0,0,1,364,465.88Z"/><path d="M391,473.35a12.77,12.77,0,0,1,7.22,2.15,12.1,12.1,0,0,1,4.45,5.77,17.9,17.9,0,0,1,1,8.16,19.36,19.36,0,0,1-5.26,12.24,14.86,14.86,0,0,1-11.33,4.55,12.71,12.71,0,0,1-7.14-2.12,12.09,12.09,0,0,1-4.46-5.73,17.48,17.48,0,0,1-1-8.09q.75-7.84,5.33-12.48A14.56,14.56,0,0,1,391,473.35Zm-8.35,19.93a7.31,7.31,0,0,0,1.32,4.43,4.36,4.36,0,0,0,3.54,1.68,6.41,6.41,0,0,0,6-3.49q2.18-3.61,2-9.49a8,8,0,0,0-1.36-4.49,4.27,4.27,0,0,0-3.56-1.74,6.41,6.41,0,0,0-5.9,3.46Q382.42,487.23,382.6,493.28Z"/><path d="M419.08,473.91l-.71,3.75a11.41,11.41,0,0,1,9.23-4.31,7.59,7.59,0,0,1,6.62,3.28q2.14,3.19,1.55,8.85l-3.34,20.15h-8.26l3.4-20.24a9.25,9.25,0,0,0,.06-2.08q-.37-3-3.75-3.08c-2.17-.07-4.11.93-5.83,3l-4,22.38h-8.26l5.51-31.69Z"/><path d="M454,506.22a13.77,13.77,0,0,1-7.37-2,12.27,12.27,0,0,1-4.79-5.5,15.25,15.25,0,0,1-1.23-7.72l.09-1.17a20.51,20.51,0,0,1,2.69-8.5,16.28,16.28,0,0,1,5.8-6,14.32,14.32,0,0,1,7.85-2q6.14.12,9.28,4.5T468.67,489l-.46,3.61H448.78a6.77,6.77,0,0,0,1.5,4.92,5.66,5.66,0,0,0,4.39,1.9,10.12,10.12,0,0,0,7.91-3.51l3.78,4.69a11.8,11.8,0,0,1-5.16,4.2A16.74,16.74,0,0,1,454,506.22Zm2.63-26a5.87,5.87,0,0,0-4.05,1.43,12.71,12.71,0,0,0-3.18,5.19h11.37l.17-.76a7.61,7.61,0,0,0,0-2.23,4.19,4.19,0,0,0-1.44-2.65A4.45,4.45,0,0,0,456.6,480.18Z"/><path d="M485.73,506.22a13.77,13.77,0,0,1-7.37-2,12.27,12.27,0,0,1-4.79-5.5,15.25,15.25,0,0,1-1.23-7.72l.08-1.17a20.67,20.67,0,0,1,2.7-8.5,16.2,16.2,0,0,1,5.8-6,14.3,14.3,0,0,1,7.85-2c4.08.08,7.18,1.58,9.27,4.5s2.9,6.63,2.39,11.11l-.47,3.61H480.54a6.81,6.81,0,0,0,1.49,4.92,5.68,5.68,0,0,0,4.4,1.9,10.13,10.13,0,0,0,7.91-3.51l3.78,4.69a11.8,11.8,0,0,1-5.16,4.2A16.76,16.76,0,0,1,485.73,506.22Zm2.63-26a5.92,5.92,0,0,0-4.06,1.43,12.6,12.6,0,0,0-3.17,5.19h11.36l.18-.76a7.61,7.61,0,0,0,0-2.23,4.28,4.28,0,0,0-1.44-2.65A4.47,4.47,0,0,0,488.36,480.18Z"/><path d="M524.13,481.88a16.64,16.64,0,0,0-2.78-.3,8,8,0,0,0-7,3.31l-3.66,20.74h-8.27l5.51-31.69,7.77,0-.77,3.86c2-3,4.46-4.48,7.39-4.48a12.27,12.27,0,0,1,2.87.41Z"/><path d="M550.5,490.61l-2.64,15h-8.58L546.69,463l14.94,0q6.92,0,10.87,3.84a11.88,11.88,0,0,1,3.46,10,13.47,13.47,0,0,1-5.23,10q-4.76,3.75-12.14,3.75Zm1.2-7.12,7.15.05a9,9,0,0,0,5.74-1.78,7.19,7.19,0,0,0,2.73-4.84,6.21,6.21,0,0,0-1-4.86,5.33,5.33,0,0,0-4.21-1.93l-8.08,0Z"/><path d="M598.28,481.88a16.64,16.64,0,0,0-2.78-.3,8,8,0,0,0-7,3.31l-3.66,20.74h-8.26l5.5-31.69,7.77,0-.77,3.86c2-3,4.46-4.48,7.39-4.48a12.2,12.2,0,0,1,2.87.41Z"/><path d="M615.19,473.35a12.77,12.77,0,0,1,7.22,2.15,12.1,12.1,0,0,1,4.45,5.77,17.77,17.77,0,0,1,1,8.16,19.35,19.35,0,0,1-5.25,12.24,14.88,14.88,0,0,1-11.33,4.55,12.77,12.77,0,0,1-7.15-2.12,12.13,12.13,0,0,1-4.45-5.73,17.35,17.35,0,0,1-1-8.09q.75-7.84,5.33-12.48A14.53,14.53,0,0,1,615.19,473.35Zm-8.35,19.93a7.31,7.31,0,0,0,1.32,4.43,4.36,4.36,0,0,0,3.54,1.68,6.42,6.42,0,0,0,6-3.49,17.44,17.44,0,0,0,2-9.49,8,8,0,0,0-1.36-4.49,4.27,4.27,0,0,0-3.56-1.74,6.43,6.43,0,0,0-5.91,3.46Q606.67,487.23,606.84,493.28Z"/><path d="M644.51,473.94l-5.68,33.42a13.16,13.16,0,0,1-3.82,8.26,11.21,11.21,0,0,1-8.13,2.91,25.84,25.84,0,0,1-4.4-.56l.68-6.74a15.47,15.47,0,0,0,2.55.38c2.59,0,4.18-1.37,4.74-4.22l5.74-33.45ZM637,465.88a4.13,4.13,0,0,1,1.23-3.21,5,5,0,0,1,6.63-.13,4.45,4.45,0,0,1,.13,6.28,4.72,4.72,0,0,1-3.31,1.34,4.61,4.61,0,0,1-3.23-1.12A4,4,0,0,1,637,465.88Z"/><path d="M660.72,506.22a13.77,13.77,0,0,1-7.37-2,12.27,12.27,0,0,1-4.79-5.5,15.25,15.25,0,0,1-1.23-7.72l.09-1.17a20.51,20.51,0,0,1,2.69-8.5,16.2,16.2,0,0,1,5.8-6,14.3,14.3,0,0,1,7.85-2q6.12.12,9.28,4.5T675.42,489l-.47,3.61H655.53a6.81,6.81,0,0,0,1.49,4.92,5.68,5.68,0,0,0,4.4,1.9,10.13,10.13,0,0,0,7.91-3.51l3.78,4.69a11.8,11.8,0,0,1-5.16,4.2A16.76,16.76,0,0,1,660.72,506.22Zm2.63-26a5.92,5.92,0,0,0-4.06,1.43,12.6,12.6,0,0,0-3.17,5.19h11.36l.18-.76a7.61,7.61,0,0,0,0-2.23,4.28,4.28,0,0,0-1.44-2.65A4.47,4.47,0,0,0,663.35,480.18Z"/><path d="M691.3,499.42a5.41,5.41,0,0,0,3.81-1.24,6.09,6.09,0,0,0,2-3.47l7.77,0a11.4,11.4,0,0,1-2.1,6,12.66,12.66,0,0,1-5,4.16,14.35,14.35,0,0,1-6.63,1.41,11.73,11.73,0,0,1-9.14-4q-3.37-3.9-3.26-10.38l.09-1.61,0-.32q.79-7.74,5.22-12.26A14.08,14.08,0,0,1,695,473.35a11.41,11.41,0,0,1,8.51,3.5,12.41,12.41,0,0,1,3.1,8.92h-7.71a6.48,6.48,0,0,0-1.11-4,4.21,4.21,0,0,0-3.34-1.58q-5.92-.18-7.18,8.64a29.23,29.23,0,0,0-.32,5.39C687.1,497.63,688.57,499.37,691.3,499.42Z"/><path d="M724.82,466.14l-1.38,7.8h5.27l-1.08,6.21h-5.27L719.66,496a3.94,3.94,0,0,0,.24,2.28c.27.53.93.81,2,.85a24.91,24.91,0,0,0,2.52-.15l-.59,6.48a13.81,13.81,0,0,1-4.74.67q-4.08-.06-6.07-2.55a9.2,9.2,0,0,1-1.64-6.73l2.72-16.73h-4.48l1.09-6.21h4.48l1.35-7.8Z"/></g><g id="图层_3" data-name="图层 3"><path class="cls-1" d="M177,351,831,0S477,161,0,332C84,365,177,351,177,351Z"/><polygon class="cls-2" points="642 15 606 109 590 190 626 102.5 642 15"/></g><g id="图层_2-2" data-name="图层 2"><path class="cls-3" d="M7.5,220.5c101-66,201-121,362.56,0,211.44,142,367.44-27,452.44-120-89.34,45.09-258,198-424,61C248.5,43.5,123.5,84.5,7.5,220.5Z"/></g></g></g></svg>